<svg width="86" height="88" viewBox="0 0 86 88" fill="none" xmlns="http://www.w3.org/2000/svg">
<path d="M56.7775 31.735C55.5805 29.53 53.848 27.8605 51.58 26.7265C49.375 25.5295 46.7605 24.931 43.7365 24.931C38.5075 24.931 34.318 26.6635 31.168 30.1285C28.018 33.5305 26.443 38.098 26.443 43.831C26.443 49.942 28.081 54.73 31.357 58.195C34.696 61.597 39.2635 63.298 45.0595 63.298C49.0285 63.298 52.3675 62.29 55.0765 60.274C57.8485 58.258 59.8645 55.36 61.1245 51.58H40.618V39.673H75.772V54.6985C74.575 58.7305 72.5275 62.479 69.6295 65.944C66.7945 69.409 63.172 72.2125 58.762 74.3545C54.352 76.4965 49.375 77.5675 43.831 77.5675C37.279 77.5675 31.42 76.15 26.254 73.315C21.151 70.417 17.1505 66.4165 14.2525 61.3135C11.4175 56.2105 10 50.383 10 43.831C10 37.279 11.4175 31.4515 14.2525 26.3485C17.1505 21.1825 21.151 17.182 26.254 14.347C31.357 11.449 37.1845 10 43.7365 10C51.6745 10 58.3525 11.9215 63.7705 15.7645C69.2515 19.6075 72.874 24.931 74.638 31.735H56.7775Z" fill="white"/>
</svg>
