<svg width="118" height="118" viewBox="0 0 118 118" fill="none" xmlns="http://www.w3.org/2000/svg">
<path d="M60.8153 104C52.1777 104 44.5407 101.937 37.9045 97.8095C31.3736 93.6825 26.7388 88.0212 24 80.8254L39.3265 72.8889C41.644 77.545 44.6987 81.1958 48.4909 83.8413C52.3883 86.381 56.6545 87.6508 61.2893 87.6508C65.2921 87.6508 68.3996 86.8572 70.6117 85.2699C72.9291 83.5767 74.0878 81.3016 74.0878 78.4445C74.0878 76.0106 73.1398 74 71.2437 72.4127C69.3476 70.7196 66.8722 69.6085 63.8174 69.0794L49.7549 66.6984C42.4867 64.7937 36.8511 61.5661 32.8483 57.0159C28.9508 52.3598 27.0021 46.9101 27.0021 40.6667C27.0021 35.4815 28.3715 30.8783 31.1103 26.8571C33.849 22.7302 37.6412 19.5556 42.4867 17.3333C47.4375 15.1111 53.0204 14 59.2353 14C67.1355 14 74.0878 15.9048 80.092 19.7143C86.0962 23.418 90.4677 28.6032 93.2065 35.2698L77.8799 43.2064C76.1945 39.5027 73.6138 36.5397 70.1376 34.3175C66.6615 32.0952 62.8167 30.9841 58.6032 30.9841C55.1271 30.9841 52.3357 31.7778 50.2289 33.3651C48.2275 34.9524 47.2268 37.0159 47.2268 39.5556C47.2268 44.2116 50.703 47.3333 57.6552 48.9206L71.4017 51.4603C78.6699 53.4709 84.3055 56.7513 88.3083 61.3016C92.3111 65.8519 94.3125 71.2487 94.3125 77.4921C94.3125 82.6772 92.8905 87.2804 90.0463 91.3016C87.3076 95.3228 83.4101 98.4444 78.3539 100.667C73.2978 102.889 67.4515 104 60.8153 104Z" fill="white"/>
</svg>
