<svg width="118" height="118" viewBox="0 0 118 118" fill="none" xmlns="http://www.w3.org/2000/svg">
<path d="M60.9273 104C52.351 104 44.7161 101.993 38.0224 97.9789C31.4333 93.9648 26.2561 88.5246 22.4909 81.6585C18.8303 74.7923 17 67.1866 17 58.8416C17 50.3908 18.8303 42.7852 22.4909 36.0246C26.2561 29.1585 31.3287 23.7711 37.7086 19.8627C44.1931 15.9542 51.4097 14 59.3585 14C67.9348 14 75.3606 15.9014 81.6359 19.7042C87.9113 23.4014 92.6701 28.4718 95.9123 34.9155C99.2592 41.3592 100.933 48.4366 100.933 56.1479C100.933 59.7394 100.567 62.6444 99.8344 64.8627H38.3361C38.9637 71.2007 41.3692 76.2711 45.5528 80.0739C49.7363 83.8768 54.9135 85.7782 61.0842 85.7782C65.6861 85.7782 69.6082 84.8275 72.8505 82.926C76.1973 80.919 78.8643 78.1725 80.8515 74.6866L97.4812 82.926C94.8664 89.2641 90.2645 94.3873 83.6754 98.2958C77.0863 102.099 69.5036 104 60.9273 104ZM78.9689 49.0176C78.446 43.7359 76.4065 39.4577 72.8505 36.1831C69.2944 32.8028 64.7971 31.1127 59.3585 31.1127C54.1291 31.1127 49.684 32.6972 46.0234 35.8662C42.3628 38.9296 39.9573 43.3134 38.8068 49.0176H78.9689Z" fill="white"/>
</svg>
