<svg width="118" height="118" viewBox="0 0 118 118" fill="none" xmlns="http://www.w3.org/2000/svg">
<path d="M27 14H60.4881C66.5915 14 72.0122 15.1275 76.7503 17.3826C81.4885 19.557 85.1425 22.7785 87.7123 27.047C90.3624 31.3154 91.6875 36.4295 91.6875 42.3893C91.6875 48.2685 90.3624 53.3423 87.7123 57.6107C85.0622 61.8792 81.368 65.1409 76.6299 67.396C71.9721 69.651 66.5915 70.7785 60.4881 70.7785H43.3827V104H27V14ZM60.7291 56.2819C65.1459 56.2819 68.6795 55.0336 71.3296 52.5369C73.9797 49.9597 75.3048 46.5772 75.3048 42.3893C75.3048 38.2013 73.9797 34.8591 71.3296 32.3624C68.6795 29.7852 65.1459 28.4967 60.7291 28.4967H43.3827V56.2819H60.7291Z" fill="white"/>
</svg>
